<svg width="259" height="449" viewBox="0 0 259 449" fill="none" xmlns="http://www.w3.org/2000/svg">
<path d="M109.405 152.798C116.838 152.753 144.311 152.128 150.296 153.301C152.992 156.916 151.436 160.201 149.29 163.377C137.163 163.205 123.384 163.125 111.12 163.13C108.907 159.54 109.002 158.4 109.405 152.798Z" fill="#0D9AFF"/>
<path d="M127.53 47.9941C141.393 46.9733 155.453 53.1231 164.185 63.9072L164.597 64.4248L164.603 64.4316C171.857 73.753 175.113 85.5764 173.649 97.2988V97.3018C173.151 101.27 171.763 106.197 169.746 110.727C167.756 115.194 164.979 119.674 161.481 122.375L161.48 122.374C159.201 124.134 157.582 125.347 156.301 126.434C155.053 127.492 154.316 128.279 153.795 129.082C152.744 130.701 152.224 132.87 151.543 138.752L151.239 141.381L148.593 141.407L136.554 141.525L136.532 141.526H136.51L112.705 141.4L110.058 141.387L109.742 138.759C109.186 134.144 107.948 131.248 106.45 129.064C104.888 126.787 102.977 125.154 100.583 122.98C98.24 120.853 95.6249 118.355 93.3347 114.604C91.0421 110.85 89.1634 105.995 87.9978 99.1797L87.9958 99.166C86.0563 87.4979 88.8892 75.5394 95.8591 65.9844C103.973 54.8528 114.47 50.0707 127.277 48.0234L127.403 48.0029L127.53 47.9941Z" stroke="#0D9AFF" stroke-width="6"/>
<path d="M130.818 0C131.65 0.217403 133.038 0.62783 133.548 1.26714C137.343 5.97589 136.398 26.3647 133.353 30.3376C132.49 30.0503 131.095 29.5627 130.57 28.8568C127.21 24.3504 127.773 3.53126 130.818 0Z" fill="#0D9AFF"/>
<path d="M195.048 30.0947C197.44 31.3858 197.89 31.6236 198.273 34.2312C196.698 39.4443 185.748 48.6505 181.3 52.8433C178.638 50.9978 179.148 51.8958 178.075 49.2499C179.185 43.9191 190.72 34.2297 195.048 30.0947Z" fill="#0D9AFF"/>
<path d="M64.3228 30.2256C68.8303 32.3816 80.4853 43.9967 82.0078 48.9269C81.4903 51.5661 81.6628 50.7386 79.5253 53.0079C75.5128 50.5435 63.5578 38.99 61.8403 34.2563C62.2303 31.7019 62.1478 32.4746 64.3228 30.2256Z" fill="#0D9AFF"/>
<path d="M193.3 91.389C198.993 91.4985 214.593 89.7498 218.215 93.3702C218.703 96.0866 218.695 95.0483 217.3 97.9268C211.698 97.8683 195.678 99.7122 192.243 96.0611C191.868 93.2404 191.77 94.3904 193.3 91.389Z" fill="#0D9AFF"/>
<path d="M42.3778 91.497C48.6553 91.5938 63.5129 89.407 67.3829 93.8489C67.3304 96.4625 67.4803 95.512 66.0103 97.9314C59.3128 97.7978 45.3103 99.7446 41.1028 95.8436C40.8928 93.2277 40.8703 94.1482 42.3778 91.497Z" fill="#0D9AFF"/>
<circle cx="129.5" cy="319.5" r="125.5" stroke="#0D9AFF" stroke-width="8"/>
<circle cx="174.315" cy="244.315" r="13.1759" transform="rotate(-156.685 174.315 244.315)" fill="#0D9AFF"/>
<rect x="98.2" y="264.63" width="26.3517" height="26.3517" rx="13.1759" transform="rotate(-156.685 98.2 264.63)" fill="#0D9AFF"/>
</svg>
